<?xml version="1.0" encoding="utf-8"?>
<!-- Generator: Adobe Illustrator 18.0.0, SVG Export Plug-In . SVG Version: 6.00 Build 0)  -->
<!DOCTYPE svg PUBLIC "-//W3C//DTD SVG 1.1//EN" "http://www.w3.org/Graphics/SVG/1.1/DTD/svg11.dtd">
<svg version="1.1" id="Layer_1" xmlns="http://www.w3.org/2000/svg" xmlns:xlink="http://www.w3.org/1999/xlink" x="0px" y="0px"
	 viewBox="0 0 50.5 48" enable-background="new 0 0 50.5 48" xml:space="preserve">
<path fill="#E6E6E6" d="M32,28.1h-1.4l-0.5-0.5c1.8-2.1,2.8-4.7,2.8-7.6c0-6.5-5.2-11.7-11.7-11.7S9.5,13.5,9.5,20
	s5.2,11.7,11.7,11.7c2.9,0,5.6-1.1,7.6-2.8l0.5,0.5v1.4l9,9l2.7-2.7L32,28.1z M21.2,28.1c-4.5,0-8.1-3.6-8.1-8.1s3.6-8.1,8.1-8.1
	s8.1,3.6,8.1,8.1S25.7,28.1,21.2,28.1z"/>
<path fill="none" d="M12.1,11.9h24v24h-24V11.9z"/>
</svg>
