<?xml version="1.0" encoding="utf-8"?>
<!-- Generator: Adobe Illustrator 18.0.0, SVG Export Plug-In . SVG Version: 6.00 Build 0)  -->
<!DOCTYPE svg PUBLIC "-//W3C//DTD SVG 1.1//EN" "http://www.w3.org/Graphics/SVG/1.1/DTD/svg11.dtd">
<svg version="1.1" id="Layer_1" xmlns="http://www.w3.org/2000/svg" xmlns:xlink="http://www.w3.org/1999/xlink" x="0px" y="0px"
	 viewBox="0 0 237.9 321" enable-background="new 0 0 237.9 321" xml:space="preserve">
<rect x="0" y="0" fill="#B3B3B3" width="237.9" height="321"/>
<g>
	<g>
		<path fill="#E6E6E6" d="M45.4,209.3c1.5-1.5,3.1-2.4,4.7-2.6c1.6-0.2,3.2,0.4,4.6,1.8c1.3,1.3,1.6,2.9,0.9,4.7
			c1-0.5,2.1-0.7,3.1-0.4c1.1,0.3,1.9,0.7,2.5,1.3c2.9,2.9,2.5,6.2-1.2,9.8l-7,7l-14.7-14.7L45.4,209.3z M43.7,216.1l3.4,3.4
			l4.2-4.2c1.5-1.5,1.8-2.8,0.7-3.9c-0.4-0.4-1-0.7-1.8-0.7c-0.8,0-1.5,0.4-2.3,1.2L43.7,216.1z M49.5,221.9l3.8,3.8l4.2-4.2
			c0.4-0.4,0.8-0.9,1.1-1.4c0.3-0.5,0.5-1,0.5-1.6c0-0.6-0.2-1.1-0.6-1.5c-0.6-0.6-1.4-0.8-2.4-0.6c-1,0.2-1.8,0.7-2.4,1.3
			L49.5,221.9z"/>
		<path fill="#E6E6E6" d="M75.8,202.9l2.7,2.7l-11,11l-14.7-14.7l11-11l2.7,2.7l-8.3,8.3l3.4,3.4l8-8l2.6,2.6l-8,8l3.3,3.3
			L75.8,202.9z"/>
		<path fill="#E6E6E6" d="M80.1,179.4l-1.1,3.3c-0.7-0.2-1.6-0.1-2.5,0.2c-1,0.3-1.8,0.9-2.6,1.6c-1,1-1.6,1.9-1.7,2.8
			c-0.2,0.9,0.1,1.6,0.6,2.2c0.4,0.4,0.9,0.6,1.5,0.5c0.6-0.1,1.1-0.3,1.7-0.6c0.5-0.3,1.2-0.8,2-1.4c0.8-0.6,1.5-1.1,2.1-1.5
			c0.6-0.4,1.3-0.8,2.1-1.1c0.8-0.3,1.5-0.5,2.2-0.5c0.7,0,1.4,0.1,2.1,0.4c0.7,0.3,1.5,0.8,2.1,1.5c1,1,1.6,2.2,1.8,3.5
			c0.1,1.3-0.1,2.6-0.7,3.8c-0.6,1.2-1.4,2.4-2.6,3.5c-3.3,3.3-6.6,4.2-10,2.8l1.1-3.5c1.1,0.5,2.2,0.5,3.3,0.2c1.1-0.4,2.2-1,3.1-2
			c1-1,1.6-2,1.9-3c0.3-1,0-1.9-0.7-2.6c-1.2-1.2-3.1-0.8-5.6,1.2c-1,0.8-1.8,1.4-2.6,1.8c-0.8,0.4-1.6,0.8-2.5,1.1
			c-0.9,0.3-1.8,0.3-2.7,0c-0.9-0.3-1.7-0.8-2.5-1.6c-1-1-1.5-2.1-1.6-3.3c-0.1-1.3,0.2-2.4,0.7-3.5c0.6-1.1,1.3-2.1,2.3-3.1
			C74.3,179.4,77.2,178.5,80.1,179.4z"/>
		<path fill="#E6E6E6" d="M98.8,185.3l-12.2-12.2l-4.7,4.7l-2.5-2.5l12.1-12.1l2.5,2.5l-4.7,4.7l12.2,12.2L98.8,185.3z"/>
		<path fill="#E6E6E6" d="M101.9,170.8l-2.4-2.4l7.7-7.7l2.4,2.4L101.9,170.8z"/>
		<path fill="#E6E6E6" d="M120.8,138.8l-1.1,3.3c-0.7-0.2-1.6-0.1-2.5,0.2c-1,0.3-1.8,0.9-2.6,1.6c-1,1-1.6,1.9-1.7,2.8
			c-0.2,0.9,0.1,1.6,0.6,2.2c0.4,0.4,0.9,0.6,1.5,0.5c0.6-0.1,1.1-0.3,1.7-0.6c0.5-0.3,1.2-0.8,2-1.4c0.8-0.6,1.5-1.1,2.1-1.5
			c0.6-0.4,1.3-0.8,2.1-1.1c0.8-0.3,1.5-0.5,2.2-0.5c0.7,0,1.4,0.1,2.1,0.4c0.7,0.3,1.5,0.8,2.1,1.5c1,1,1.6,2.2,1.8,3.5
			c0.1,1.3-0.1,2.6-0.7,3.8c-0.6,1.2-1.4,2.4-2.6,3.5c-3.3,3.3-6.6,4.2-10,2.8l1.1-3.5c1.1,0.5,2.2,0.5,3.3,0.2c1.1-0.4,2.2-1,3.1-2
			c1-1,1.6-2,1.9-3c0.3-1,0-1.9-0.7-2.6c-1.2-1.2-3.1-0.8-5.6,1.2c-1,0.8-1.8,1.4-2.6,1.8c-0.8,0.4-1.6,0.8-2.5,1.1
			c-0.9,0.3-1.8,0.3-2.7,0c-0.9-0.3-1.7-0.8-2.5-1.6c-1-1-1.5-2.1-1.6-3.3c-0.1-1.3,0.2-2.4,0.7-3.5c0.6-1.1,1.3-2.1,2.3-3.1
			C115,138.8,117.9,137.8,120.8,138.8z"/>
		<path fill="#E6E6E6" d="M143.9,134.8l2.7,2.7l-11,11l-14.7-14.7l11-11l2.7,2.7l-8.3,8.3l3.4,3.4l8-8l2.6,2.6l-8,8l3.3,3.3
			L143.9,134.8z"/>
		<path fill="#E6E6E6" d="M134,120.7l2.8-2.8L149,130l7.6-7.6l2.6,2.6l-10.3,10.3L134,120.7z"/>
		<path fill="#E6E6E6" d="M146.3,108.4l2.8-2.8l12.1,12.1l7.6-7.6l2.6,2.6L161,123.1L146.3,108.4z"/>
		<path fill="#E6E6E6" d="M181.5,97.1l2.7,2.7l-11,11l-14.7-14.7l11-11l2.7,2.7l-8.3,8.3l3.4,3.4l8-8l2.6,2.6l-8,8l3.3,3.3
			L181.5,97.1z"/>
		<path fill="#E6E6E6" d="M199.3,84.5l0.2,0.2l-3.3,3.3l-9.2-0.6l-2.7,2.7l4.9,4.9l-2.8,2.8L171.7,83c0.8-0.8,2-1.9,3.5-3.5
			c1.6-1.5,2.7-2.7,3.5-3.5c1.7-1.6,3.4-2.5,5.3-2.4c1.9,0,3.5,0.7,4.8,2c1.1,1.1,1.8,2.4,2.1,3.8c0.3,1.4-0.1,2.9-1.2,4.5
			L199.3,84.5z M181.3,78.6l-4.2,4.2l4.7,4.7l4.2-4.2c0.8-0.8,1.2-1.7,1.2-2.6c0-0.9-0.4-1.7-1-2.3c-0.6-0.6-1.4-1-2.3-1
			C183,77.4,182.1,77.8,181.3,78.6z"/>
	</g>
</g>
</svg>
