<?xml version="1.0" encoding="utf-8"?>
<!-- Generator: Adobe Illustrator 18.0.0, SVG Export Plug-In . SVG Version: 6.00 Build 0)  -->
<!DOCTYPE svg PUBLIC "-//W3C//DTD SVG 1.1//EN" "http://www.w3.org/Graphics/SVG/1.1/DTD/svg11.dtd">
<svg version="1.1" id="Layer_1" xmlns="http://www.w3.org/2000/svg" xmlns:xlink="http://www.w3.org/1999/xlink" x="0px" y="0px"
	 viewBox="0 0 227.9 121.5" enable-background="new 0 0 227.9 121.5" xml:space="preserve">
<g>
	<rect x="68.6" y="44.2" fill="#999999" width="26" height="70.9"/>
	<rect x="98.3" y="61.6" fill="#999999" width="26" height="53.5"/>
	<rect x="127.9" y="44.2" fill="#999999" width="26" height="70.9"/>
	
		<rect x="191.3" y="54" transform="matrix(-0.9794 0.2019 -0.2019 -0.9794 421.2988 124.0932)" fill="#999999" width="26" height="59"/>
	<g>
		<path fill="#999999" d="M27.7,32.3V11.9l-9.2,12.2h-1l-9-12.2v20.4H3.2V4.2h6.1l8.8,12.1l8.8-12.1H33v28.1H27.7z"/>
		<path fill="#999999" d="M52.1,12.4h5.4L45.5,40.5h-5.4l3.7-8.6l-7.9-19.5h5.7l3,8.6l1.9,5.6l2-5.5L52.1,12.4z"/>
		<path fill="#999999" d="M73.9,32.2h-5.3V4.2h20.2v5.1H73.9v7.7H88v4.9H73.9V32.2z"/>
		<path fill="#999999" d="M107.6,15.2l0.2-2.7h4.7v19.8h-4.6l-0.2-2.9c-0.5,1.1-1.4,1.9-2.7,2.5c-1.3,0.6-2.5,0.9-3.7,1
			c-3,0-5.5-0.9-7.4-2.7c-1.9-1.8-2.8-4.4-2.8-7.8c0-3.3,1-5.8,2.9-7.7c1.9-1.8,4.4-2.7,7.4-2.7c1.3,0,2.6,0.3,3.7,0.9
			C106.2,13.4,107.1,14.2,107.6,15.2z M101.8,16.3c-1.7,0-3.1,0.5-4.2,1.6c-1.1,1.1-1.7,2.5-1.7,4.4c0,1.8,0.6,3.3,1.7,4.4
			c1.1,1.1,2.5,1.6,4.2,1.6c1.5,0,2.7-0.4,3.7-1.2c1-0.8,1.6-1.8,1.8-3c0.2-1.2,0.2-2.3,0-3.5c-0.2-1.2-0.8-2.2-1.8-3
			S103.2,16.3,101.8,16.3z"/>
		<path fill="#999999" d="M130.6,12.4h5.3l-8.4,19.9h-5.3l-8.5-19.9h5.3l2.7,6.5l3.1,8.4l3-8.3L130.6,12.4z"/>
		<path fill="#999999" d="M140.2,15c1.9-2,4.3-3,7.4-3c3.1,0,5.6,1,7.5,3s2.9,4.4,2.9,7.3c0,2.9-0.9,5.4-2.8,7.4c-1.9,2-4.4,3-7.5,3
			c-3.1,0-5.6-1-7.5-3s-2.8-4.4-2.8-7.4C137.3,19.4,138.3,17,140.2,15z M147.6,16.5c-1.7,0-3,0.6-4,1.7c-1,1.2-1.4,2.5-1.4,4.1
			c0,1.6,0.5,3,1.4,4.1c1,1.1,2.3,1.7,4,1.7c1.7,0,3-0.6,4-1.7c1-1.1,1.4-2.5,1.4-4.1c0-1.6-0.5-2.9-1.5-4.1
			C150.5,17.1,149.2,16.5,147.6,16.5z"/>
		<path fill="#999999" d="M161.3,12.4h4.5l0.4,2.3c0.7-1.1,1.5-1.9,2.4-2.2c0.9-0.4,2-0.6,3.2-0.6c2.1,0,3.8,0.6,5.1,1.9l-2.2,4.3
			c-1-0.9-2.2-1.3-3.5-1.3c-1.4,0-2.6,0.4-3.5,1.2c-0.9,0.8-1.4,2.1-1.4,3.8v10.4h-4.9V12.4z"/>
		<path fill="#999999" d="M179.2,9c-0.6-0.5-0.9-1.2-0.9-2.1c0-0.9,0.3-1.6,0.9-2.1c0.6-0.5,1.3-0.8,2-0.8s1.4,0.3,2,0.8
			c0.6,0.5,0.9,1.2,0.9,2.1c0,0.9-0.3,1.6-0.9,2.1c-0.6,0.5-1.3,0.8-2,0.8S179.8,9.5,179.2,9z M183.6,12.3h-4.9v19.9h4.9V12.3z"/>
		<path fill="#999999" d="M190.1,7.4l4.9-0.5v5.6h5.5v4.2h-5.5v8.6c0,0.9,0.2,1.6,0.7,2.1c0.5,0.5,1.1,0.7,1.9,0.7
			c0.8,0,1.6-0.2,2.4-0.6l1.4,4.2c-1.3,0.5-2.7,0.8-4.1,0.8c-2.2,0.1-3.9-0.5-5.2-1.7c-1.3-1.2-1.9-3.1-1.9-5.5v-8.6h-3.7v-4.2h3.7
			V7.4z"/>
		<path fill="#999999" d="M223.7,24.1h-15.5c0.2,1.3,0.8,2.3,1.8,3.1c1,0.8,2.4,1.2,4.1,1.2c1,0,2-0.2,3-0.5s1.8-0.8,2.3-1.3
			l3.1,3.1c-1,1-2.3,1.8-3.8,2.4c-1.6,0.5-3.1,0.8-4.7,0.8c-3.4,0-6-1-8-2.9c-1.9-1.9-2.9-4.5-2.9-7.7c0-3.1,1-5.5,2.9-7.5
			s4.5-2.9,7.6-2.9c3.4,0,6,1.1,7.8,3.2C223.4,17.1,224.1,20.1,223.7,24.1z M208.3,20H219c-0.2-1.3-0.7-2.2-1.6-2.9
			c-0.9-0.7-2.1-1-3.5-1c-1.4,0-2.5,0.3-3.5,1C209.4,17.8,208.7,18.8,208.3,20z"/>
	</g>
	<path fill="#F2F2F2" d="M82.9,69.2c2.6,0,4.7,0.6,6.2,1.8c1.6,1.2,2.3,3,2.3,5.4c0,2.2-1.1,3.8-3.2,4.8c1.3,0.4,2.3,1.2,3,2.3
		c0.7,1.2,1,2.2,1,3.2c0,4.9-3.1,7.3-9.3,7.3H71V69.2H82.9z M75.7,73.5v5.7h7.2c2.6,0,3.9-0.9,3.9-2.7c0-0.7-0.3-1.4-1-2.1
		c-0.6-0.7-1.6-1-3-1H75.7z M75.7,83.3v6.4h7.2c0.7,0,1.4-0.1,2.1-0.2c0.7-0.2,1.2-0.5,1.8-0.9c0.5-0.5,0.8-1.1,0.8-1.8
		c0-1-0.5-1.9-1.5-2.5c-1-0.6-2.1-0.9-3.1-0.9H75.7z"/>
	<path fill="#F2F2F2" d="M111.3,73.3c2.2,0,4.1,0.5,5.7,1.6c1.6,1,2.8,2.3,3.5,3.9c0.7,1.6,1.1,3.2,1.1,5c0,1.3-0.2,2.6-0.7,3.8
		c-0.4,1.2-1,2.3-1.8,3.3c-0.8,1-1.9,1.8-3.2,2.3c-1.3,0.6-2.8,0.9-4.5,0.9c-1.7,0-3.2-0.3-4.5-0.9c-1.3-0.6-2.4-1.3-3.2-2.3
		c-0.8-1-1.4-2.1-1.8-3.3c-0.4-1.2-0.6-2.5-0.6-3.8c0-1.3,0.2-2.6,0.7-3.9c0.4-1.2,1.1-2.3,1.9-3.3s1.9-1.8,3.2-2.4
		C108.2,73.6,109.6,73.3,111.3,73.3z M111.3,76.8c-1.5,0-2.7,0.4-3.8,1.1c-1,0.7-1.8,1.6-2.2,2.7c-0.4,1-0.6,2.2-0.6,3.4
		c0.1,1.9,0.6,3.5,1.7,4.8c1.1,1.3,2.7,2,4.9,2c2.2,0,3.8-0.7,4.9-2c1.1-1.3,1.6-2.9,1.7-4.8c0-0.9-0.1-1.7-0.3-2.5
		c-0.2-0.8-0.6-1.6-1.1-2.3c-0.5-0.7-1.2-1.3-2.1-1.7C113.4,77,112.4,76.8,111.3,76.8z"/>
	<path fill="#F2F2F2" d="M141.4,70.8c2.5,0,4.6,0.6,6.4,1.7c1.8,1.2,3.1,2.6,3.9,4.4c0.8,1.8,1.2,3.6,1.2,5.7c0,1.5-0.3,2.9-0.7,4.3
		c-0.5,1.4-1.2,2.6-2.1,3.7c-0.9,1.1-2.1,2-3.6,2.6c-1.5,0.7-3.2,1-5.1,1c-1.9,0-3.6-0.3-5.1-1c-1.5-0.6-2.7-1.5-3.6-2.6
		c-0.9-1.1-1.6-2.3-2.1-3.7c-0.5-1.4-0.7-2.8-0.7-4.3c0-1.5,0.2-3,0.7-4.4c0.5-1.4,1.2-2.6,2.1-3.8c0.9-1.1,2.1-2,3.6-2.7
		C137.9,71.1,139.6,70.8,141.4,70.8z M141.4,74.6c-1.7,0-3.1,0.4-4.2,1.2c-1.2,0.8-2,1.8-2.5,3c-0.5,1.2-0.7,2.4-0.7,3.8
		c0.1,2.1,0.7,3.9,1.9,5.4c1.2,1.5,3,2.2,5.5,2.2c2.4,0,4.3-0.8,5.5-2.3c1.2-1.5,1.8-3.3,1.9-5.4c0-1-0.1-1.9-0.4-2.8
		c-0.3-0.9-0.7-1.8-1.3-2.6c-0.6-0.8-1.3-1.4-2.3-1.9C143.8,74.8,142.7,74.6,141.4,74.6z"/>
	<g>
		<rect x="157.6" y="44.2" fill="#999999" width="26" height="70.9"/>
		<path fill="#F2F2F2" d="M181.1,66.7v0.2L168.9,80l13.2,13.8v0.3h-6.4L164.3,82v12.1h-5.2V66.7h5.2v11.6l10.4-11.6H181.1z"/>
	</g>
	<path fill="#F2F2F2" d="M211.9,66.6l-3.6,2.9c-0.7-0.7-1.6-1.2-2.9-1.6c-1.3-0.3-2.6-0.4-4.1-0.1c-1.8,0.4-3.1,1-3.9,1.8
		c-0.8,0.9-1.1,1.8-0.9,2.9c0.2,0.7,0.6,1.3,1.3,1.6c0.7,0.4,1.4,0.5,2.3,0.6c0.8,0,1.9,0,3.1-0.1c1.3-0.1,2.4-0.2,3.4-0.1
		c1,0,2,0.1,3.1,0.3c1.1,0.2,2,0.5,2.7,1c0.7,0.4,1.4,1.1,2,2c0.6,0.9,1,1.9,1.3,3.2c0.4,1.9,0.2,3.6-0.6,5.2
		c-0.8,1.5-2,2.8-3.5,3.7c-1.5,0.9-3.3,1.6-5.4,2c-6,1.2-10.4-0.2-13-4.2l3.8-3.1c0.9,1.3,2,2.2,3.5,2.6c1.5,0.4,3.1,0.5,4.9,0.1
		c1.8-0.4,3.2-1,4.2-1.9c1-0.9,1.4-2,1.1-3.4c-0.5-2.2-2.8-3.1-7-2.7c-1.6,0.1-3,0.2-4.2,0.1c-1.2-0.1-2.4-0.3-3.5-0.6
		c-1.2-0.4-2.2-1-2.9-1.9c-0.8-0.9-1.3-2.1-1.6-3.5c-0.4-1.7-0.1-3.3,0.7-4.8c0.8-1.4,1.9-2.6,3.3-3.4c1.4-0.8,3-1.4,4.7-1.8
		C205.6,62.4,209.5,63.4,211.9,66.6z"/>
</g>
</svg>
