<?xml version="1.0" encoding="utf-8"?>
<!-- Generator: Adobe Illustrator 18.0.0, SVG Export Plug-In . SVG Version: 6.00 Build 0)  -->
<!DOCTYPE svg PUBLIC "-//W3C//DTD SVG 1.1//EN" "http://www.w3.org/Graphics/SVG/1.1/DTD/svg11.dtd">
<svg version="1.1" id="Layer_1" xmlns="http://www.w3.org/2000/svg" xmlns:xlink="http://www.w3.org/1999/xlink" x="0px" y="0px"
	 viewBox="0 0 55.1 48.4" enable-background="new 0 0 55.1 48.4" xml:space="preserve">
<path fill="#E6E6E6" d="M21.6,33.2c-1.6,0-3,1.3-3,3s1.3,3,3,3s3-1.3,3-3S23.2,33.2,21.6,33.2z M12.6,9.2v3h3L21,23.6l-2,3.7
	c-0.2,0.4-0.4,0.9-0.4,1.4c0,1.6,1.4,3,3,3h18v-3H22.2c-0.2,0-0.4-0.2-0.4-0.4l0-0.2l1.4-2.4h11.2c1.1,0,2.1-0.6,2.6-1.5l5.4-9.7
	c0.1-0.2,0.2-0.5,0.2-0.7c0-0.8-0.7-1.5-1.5-1.5H18.9l-1.4-3C17.5,9.2,12.6,9.2,12.6,9.2z M36.6,33.2c-1.6,0-3,1.3-3,3s1.3,3,3,3
	s3-1.3,3-3S38.2,33.2,36.6,33.2z"/>
</svg>
